<svg width="375" height="415" viewBox="0 0 375 415" fill="none" xmlns="http://www.w3.org/2000/svg">
<g filter="url(#filter0_d_4_381)">
<rect x="32" y="41" width="315" height="315" rx="8" fill="#D9D9D9"/>
</g>
<path d="M55.44 90.16C54.7573 90.16 54.1227 90.064 53.536 89.872C52.96 89.6693 52.4587 89.3867 52.032 89.024C51.6053 88.6613 51.28 88.24 51.056 87.76C50.9707 87.5893 50.9653 87.4347 51.04 87.296C51.1253 87.1467 51.264 87.0453 51.456 86.992C51.6053 86.9493 51.7493 86.9653 51.888 87.04C52.0373 87.1147 52.1493 87.2267 52.224 87.376C52.384 87.6853 52.6187 87.9627 52.928 88.208C53.2373 88.4533 53.6053 88.6453 54.032 88.784C54.4587 88.912 54.928 88.976 55.44 88.976C56.0053 88.976 56.5067 88.8853 56.944 88.704C57.3813 88.512 57.7227 88.24 57.968 87.888C58.224 87.5253 58.352 87.088 58.352 86.576C58.352 85.9253 58.112 85.3653 57.632 84.896C57.152 84.4267 56.4 84.128 55.376 84C54.128 83.8507 53.152 83.4667 52.448 82.848C51.744 82.2187 51.392 81.4507 51.392 80.544C51.392 79.8933 51.5627 79.328 51.904 78.848C52.256 78.368 52.736 78 53.344 77.744C53.952 77.4773 54.6507 77.344 55.44 77.344C56.0267 77.344 56.56 77.44 57.04 77.632C57.52 77.8133 57.936 78.0587 58.288 78.368C58.6507 78.6667 58.944 78.9973 59.168 79.36C59.2747 79.5307 59.3067 79.696 59.264 79.856C59.232 80.016 59.1413 80.1387 58.992 80.224C58.832 80.2987 58.6667 80.3093 58.496 80.256C58.336 80.2027 58.2133 80.1013 58.128 79.952C57.968 79.7067 57.7653 79.4773 57.52 79.264C57.2853 79.04 56.9973 78.864 56.656 78.736C56.3147 78.608 55.904 78.5387 55.424 78.528C54.5813 78.528 53.904 78.7093 53.392 79.072C52.88 79.424 52.624 79.9413 52.624 80.624C52.624 80.9867 52.72 81.3227 52.912 81.632C53.104 81.9307 53.4187 82.192 53.856 82.416C54.304 82.6293 54.9013 82.7893 55.648 82.896C56.9813 83.088 57.968 83.4987 58.608 84.128C59.2587 84.7467 59.584 85.5573 59.584 86.56C59.584 87.136 59.4773 87.648 59.264 88.096C59.0613 88.544 58.768 88.9227 58.384 89.232C58.0107 89.5307 57.568 89.76 57.056 89.92C56.5547 90.08 56.016 90.16 55.44 90.16ZM65.8898 90.08C65.0684 90.08 64.3324 89.888 63.6818 89.504C63.0311 89.1093 62.5137 88.576 62.1298 87.904C61.7564 87.232 61.5698 86.4747 61.5698 85.632C61.5698 84.7787 61.7618 84.016 62.1458 83.344C62.5404 82.672 63.0738 82.144 63.7458 81.76C64.4178 81.3653 65.1751 81.168 66.0178 81.168C66.8604 81.168 67.6124 81.3653 68.2738 81.76C68.9458 82.144 69.4738 82.672 69.8578 83.344C70.2524 84.016 70.4551 84.7787 70.4658 85.632L69.9698 86.016C69.9698 86.784 69.7884 87.4773 69.4258 88.096C69.0738 88.704 68.5884 89.1893 67.9698 89.552C67.3618 89.904 66.6684 90.08 65.8898 90.08ZM66.0178 88.96C66.6364 88.96 67.1858 88.816 67.6658 88.528C68.1564 88.24 68.5404 87.8453 68.8177 87.344C69.1058 86.832 69.2498 86.2613 69.2498 85.632C69.2498 84.992 69.1058 84.4213 68.8177 83.92C68.5404 83.4187 68.1564 83.024 67.6658 82.736C67.1858 82.4373 66.6364 82.288 66.0178 82.288C65.4098 82.288 64.8604 82.4373 64.3698 82.736C63.8791 83.024 63.4898 83.4187 63.2018 83.92C62.9138 84.4213 62.7698 84.992 62.7698 85.632C62.7698 86.2613 62.9138 86.832 63.2018 87.344C63.4898 87.8453 63.8791 88.24 64.3698 88.528C64.8604 88.816 65.4098 88.96 66.0178 88.96ZM69.8418 90C69.6604 90 69.5111 89.9467 69.3938 89.84C69.2764 89.7227 69.2178 89.5733 69.2178 89.392V86.656L69.5218 85.392L70.4658 85.632V89.392C70.4658 89.5733 70.4071 89.7227 70.2898 89.84C70.1724 89.9467 70.0231 90 69.8418 90ZM74.7499 90C74.3232 90 73.9392 89.8827 73.5979 89.648C73.2672 89.4133 73.0059 89.088 72.8139 88.672C72.6325 88.256 72.5419 87.776 72.5419 87.232V78.112C72.5419 77.9307 72.5952 77.7867 72.7019 77.68C72.8192 77.5627 72.9685 77.504 73.1499 77.504C73.3312 77.504 73.4752 77.5627 73.5819 77.68C73.6992 77.7867 73.7579 77.9307 73.7579 78.112V87.232C73.7579 87.6907 73.8485 88.064 74.0299 88.352C74.2219 88.64 74.4619 88.784 74.7499 88.784H75.1499C75.3099 88.784 75.4379 88.8427 75.5339 88.96C75.6299 89.0667 75.6779 89.2107 75.6779 89.392C75.6779 89.5733 75.6085 89.7227 75.4699 89.84C75.3419 89.9467 75.1712 90 74.9579 90H74.7499ZM80.8771 90.08C80.0345 90.08 79.2771 89.888 78.6051 89.504C77.9331 89.1093 77.3998 88.576 77.0051 87.904C76.6211 87.232 76.4291 86.4693 76.4291 85.616C76.4291 84.7733 76.6158 84.016 76.9891 83.344C77.3731 82.672 77.8905 82.144 78.5411 81.76C79.1918 81.3653 79.9278 81.168 80.7491 81.168C81.4638 81.168 82.1091 81.3227 82.6851 81.632C83.2611 81.9307 83.7251 82.3307 84.0771 82.832V78.128C84.0771 77.936 84.1358 77.7867 84.2531 77.68C84.3705 77.5627 84.5198 77.504 84.7011 77.504C84.8825 77.504 85.0318 77.5627 85.1491 77.68C85.2665 77.7867 85.3251 77.936 85.3251 78.128V85.68C85.3038 86.512 85.0958 87.264 84.7011 87.936C84.3171 88.5973 83.7891 89.12 83.1171 89.504C82.4558 89.888 81.7091 90.08 80.8771 90.08ZM80.8771 88.96C81.4958 88.96 82.0451 88.816 82.5251 88.528C83.0158 88.2293 83.3998 87.8293 83.6771 87.328C83.9651 86.8267 84.1091 86.256 84.1091 85.616C84.1091 84.9867 83.9651 84.4213 83.6771 83.92C83.3998 83.408 83.0158 83.008 82.5251 82.72C82.0451 82.432 81.4958 82.288 80.8771 82.288C80.2691 82.288 79.7198 82.432 79.2291 82.72C78.7385 83.008 78.3491 83.408 78.0611 83.92C77.7731 84.4213 77.6291 84.9867 77.6291 85.616C77.6291 86.256 77.7731 86.8267 78.0611 87.328C78.3491 87.8293 78.7385 88.2293 79.2291 88.528C79.7198 88.816 80.2691 88.96 80.8771 88.96ZM92.1896 90.08C91.3363 90.08 90.5736 89.888 89.9016 89.504C89.2296 89.12 88.7016 88.592 88.3176 87.92C87.9336 87.248 87.7416 86.4853 87.7416 85.632C87.7416 84.768 87.9336 84 88.3176 83.328C88.7016 82.656 89.2296 82.128 89.9016 81.744C90.5736 81.36 91.3363 81.168 92.1896 81.168C93.043 81.168 93.8003 81.36 94.4616 81.744C95.1336 82.128 95.6616 82.656 96.0456 83.328C96.4296 84 96.627 84.768 96.6376 85.632C96.6376 86.4853 96.4403 87.248 96.0456 87.92C95.6616 88.592 95.1336 89.12 94.4616 89.504C93.8003 89.888 93.043 90.08 92.1896 90.08ZM92.1896 88.96C92.8083 88.96 93.363 88.816 93.8536 88.528C94.3443 88.24 94.7283 87.8453 95.0056 87.344C95.283 86.8427 95.4216 86.272 95.4216 85.632C95.4216 84.992 95.283 84.4213 95.0056 83.92C94.7283 83.408 94.3443 83.008 93.8536 82.72C93.363 82.432 92.8083 82.288 92.1896 82.288C91.571 82.288 91.0163 82.432 90.5256 82.72C90.035 83.008 89.6456 83.408 89.3576 83.92C89.0803 84.4213 88.9416 84.992 88.9416 85.632C88.9416 86.272 89.0803 86.8427 89.3576 87.344C89.6456 87.8453 90.035 88.24 90.5256 88.528C91.0163 88.816 91.571 88.96 92.1896 88.96Z" fill="black"/>
<path d="M65.87 125L61.82 119.15H61.58H57.35V125H52.49V104H61.58C63.44 104 65.05 104.31 66.41 104.93C67.79 105.55 68.85 106.43 69.59 107.57C70.33 108.71 70.7 110.06 70.7 111.62C70.7 113.18 70.32 114.53 69.56 115.67C68.82 116.79 67.76 117.65 66.38 118.25L71.09 125H65.87ZM65.78 111.62C65.78 110.44 65.4 109.54 64.64 108.92C63.88 108.28 62.77 107.96 61.31 107.96H57.35V115.28H61.31C62.77 115.28 63.88 114.96 64.64 114.32C65.4 113.68 65.78 112.78 65.78 111.62ZM79.6505 125.24C78.3105 125.24 77.0005 125.08 75.7205 124.76C74.4405 124.42 73.4205 124 72.6605 123.5L74.2205 120.14C74.9405 120.6 75.8105 120.98 76.8305 121.28C77.8505 121.56 78.8505 121.7 79.8305 121.7C81.8105 121.7 82.8005 121.21 82.8005 120.23C82.8005 119.77 82.5305 119.44 81.9905 119.24C81.4505 119.04 80.6205 118.87 79.5005 118.73C78.1805 118.53 77.0905 118.3 76.2305 118.04C75.3705 117.78 74.6205 117.32 73.9805 116.66C73.3605 116 73.0505 115.06 73.0505 113.84C73.0505 112.82 73.3405 111.92 73.9205 111.14C74.5205 110.34 75.3805 109.72 76.5005 109.28C77.6405 108.84 78.9805 108.62 80.5205 108.62C81.6605 108.62 82.7905 108.75 83.9105 109.01C85.0505 109.25 85.9905 109.59 86.7305 110.03L85.1705 113.36C83.7505 112.56 82.2005 112.16 80.5205 112.16C79.5205 112.16 78.7705 112.3 78.2705 112.58C77.7705 112.86 77.5205 113.22 77.5205 113.66C77.5205 114.16 77.7905 114.51 78.3305 114.71C78.8705 114.91 79.7305 115.1 80.9105 115.28C82.2305 115.5 83.3105 115.74 84.1505 116C84.9905 116.24 85.7205 116.69 86.3405 117.35C86.9605 118.01 87.2705 118.93 87.2705 120.11C87.2705 121.11 86.9705 122 86.3705 122.78C85.7705 123.56 84.8905 124.17 83.7305 124.61C82.5905 125.03 81.2305 125.24 79.6505 125.24ZM107.774 111.83C109.114 111.83 110.334 112.1 111.434 112.64C112.534 113.18 113.404 113.95 114.044 114.95C114.684 115.93 115.004 117.07 115.004 118.37C115.004 119.77 114.654 121 113.954 122.06C113.254 123.12 112.294 123.94 111.074 124.52C109.874 125.08 108.534 125.36 107.054 125.36C104.114 125.36 101.814 124.46 100.154 122.66C98.4941 120.86 97.6641 118.29 97.6641 114.95C97.6641 112.57 98.1141 110.53 99.0141 108.83C99.9141 107.13 101.164 105.84 102.764 104.96C104.384 104.08 106.254 103.64 108.374 103.64C109.494 103.64 110.564 103.77 111.584 104.03C112.624 104.27 113.504 104.62 114.224 105.08L112.424 108.65C111.384 107.95 110.074 107.6 108.494 107.6C106.714 107.6 105.304 108.12 104.264 109.16C103.224 110.2 102.664 111.71 102.584 113.69C103.824 112.45 105.554 111.83 107.774 111.83ZM106.784 121.73C107.824 121.73 108.664 121.45 109.304 120.89C109.964 120.33 110.294 119.57 110.294 118.61C110.294 117.65 109.964 116.89 109.304 116.33C108.664 115.75 107.804 115.46 106.724 115.46C105.664 115.46 104.794 115.76 104.114 116.36C103.434 116.94 103.094 117.69 103.094 118.61C103.094 119.53 103.424 120.28 104.084 120.86C104.744 121.44 105.644 121.73 106.784 121.73ZM119.849 119.42C120.689 119.42 121.379 119.69 121.919 120.23C122.459 120.75 122.729 121.44 122.729 122.3C122.729 122.7 122.679 123.1 122.579 123.5C122.479 123.9 122.259 124.5 121.919 125.3L120.209 129.62H117.239L118.559 124.85C118.059 124.65 117.659 124.33 117.359 123.89C117.079 123.43 116.939 122.9 116.939 122.3C116.939 121.44 117.209 120.75 117.749 120.23C118.309 119.69 119.009 119.42 119.849 119.42ZM140.893 121.04V125H125.023V121.85L133.123 114.2C133.983 113.38 134.563 112.68 134.863 112.1C135.163 111.5 135.313 110.91 135.313 110.33C135.313 109.49 135.023 108.85 134.443 108.41C133.883 107.95 133.053 107.72 131.953 107.72C131.033 107.72 130.203 107.9 129.463 108.26C128.723 108.6 128.103 109.12 127.603 109.82L124.063 107.54C124.883 106.32 126.013 105.37 127.453 104.69C128.893 103.99 130.543 103.64 132.403 103.64C133.963 103.64 135.323 103.9 136.483 104.42C137.663 104.92 138.573 105.64 139.213 106.58C139.873 107.5 140.203 108.59 140.203 109.85C140.203 110.99 139.963 112.06 139.483 113.06C139.003 114.06 138.073 115.2 136.693 116.48L131.863 121.04H140.893ZM150.279 103.64C153.219 103.64 155.519 104.54 157.179 106.34C158.839 108.12 159.669 110.69 159.669 114.05C159.669 116.43 159.219 118.47 158.319 120.17C157.439 121.87 156.189 123.16 154.569 124.04C152.949 124.92 151.079 125.36 148.959 125.36C147.839 125.36 146.769 125.24 145.749 125C144.729 124.74 143.859 124.38 143.139 123.92L144.939 120.35C145.959 121.05 147.269 121.4 148.869 121.4C150.649 121.4 152.059 120.88 153.099 119.84C154.139 118.78 154.699 117.26 154.779 115.28C153.519 116.54 151.779 117.17 149.559 117.17C148.219 117.17 146.999 116.9 145.899 116.36C144.799 115.82 143.929 115.06 143.289 114.08C142.649 113.08 142.329 111.93 142.329 110.63C142.329 109.23 142.679 108 143.379 106.94C144.079 105.88 145.029 105.07 146.229 104.51C147.449 103.93 148.799 103.64 150.279 103.64ZM150.639 113.54C151.699 113.54 152.559 113.25 153.219 112.67C153.899 112.07 154.239 111.31 154.239 110.39C154.239 109.47 153.909 108.72 153.249 108.14C152.609 107.56 151.719 107.27 150.579 107.27C149.539 107.27 148.689 107.55 148.029 108.11C147.389 108.67 147.069 109.43 147.069 110.39C147.069 111.35 147.389 112.12 148.029 112.7C148.689 113.26 149.559 113.54 150.639 113.54ZM171 125.36C169.26 125.36 167.71 124.93 166.35 124.07C164.99 123.21 163.92 121.97 163.14 120.35C162.38 118.71 162 116.76 162 114.5C162 112.24 162.38 110.3 163.14 108.68C163.92 107.04 164.99 105.79 166.35 104.93C167.71 104.07 169.26 103.64 171 103.64C172.74 103.64 174.29 104.07 175.65 104.93C177.01 105.79 178.07 107.04 178.83 108.68C179.61 110.3 180 112.24 180 114.5C180 116.76 179.61 118.71 178.83 120.35C178.07 121.97 177.01 123.21 175.65 124.07C174.29 124.93 172.74 125.36 171 125.36ZM171 121.25C172.28 121.25 173.28 120.7 174 119.6C174.74 118.5 175.11 116.8 175.11 114.5C175.11 112.2 174.74 110.5 174 109.4C173.28 108.3 172.28 107.75 171 107.75C169.74 107.75 168.74 108.3 168 109.4C167.28 110.5 166.92 112.2 166.92 114.5C166.92 116.8 167.28 118.5 168 119.6C168.74 120.7 169.74 121.25 171 121.25ZM184.771 119.42C185.611 119.42 186.301 119.69 186.841 120.23C187.381 120.75 187.651 121.44 187.651 122.3C187.651 122.7 187.601 123.1 187.501 123.5C187.401 123.9 187.181 124.5 186.841 125.3L185.131 129.62H182.161L183.481 124.85C182.981 124.65 182.581 124.33 182.281 123.89C182.001 123.43 181.861 122.9 181.861 122.3C181.861 121.44 182.131 120.75 182.671 120.23C183.231 119.69 183.931 119.42 184.771 119.42ZM198.451 125.36C196.711 125.36 195.161 124.93 193.801 124.07C192.441 123.21 191.371 121.97 190.591 120.35C189.831 118.71 189.451 116.76 189.451 114.5C189.451 112.24 189.831 110.3 190.591 108.68C191.371 107.04 192.441 105.79 193.801 104.93C195.161 104.07 196.711 103.64 198.451 103.64C200.191 103.64 201.741 104.07 203.101 104.93C204.461 105.79 205.521 107.04 206.281 108.68C207.061 110.3 207.451 112.24 207.451 114.5C207.451 116.76 207.061 118.71 206.281 120.35C205.521 121.97 204.461 123.21 203.101 124.07C201.741 124.93 200.191 125.36 198.451 125.36ZM198.451 121.25C199.731 121.25 200.731 120.7 201.451 119.6C202.191 118.5 202.561 116.8 202.561 114.5C202.561 112.2 202.191 110.5 201.451 109.4C200.731 108.3 199.731 107.75 198.451 107.75C197.191 107.75 196.191 108.3 195.451 109.4C194.731 110.5 194.371 112.2 194.371 114.5C194.371 116.8 194.731 118.5 195.451 119.6C196.191 120.7 197.191 121.25 198.451 121.25ZM218.813 125.36C217.073 125.36 215.523 124.93 214.163 124.07C212.803 123.21 211.733 121.97 210.953 120.35C210.193 118.71 209.813 116.76 209.813 114.5C209.813 112.24 210.193 110.3 210.953 108.68C211.733 107.04 212.803 105.79 214.163 104.93C215.523 104.07 217.073 103.64 218.813 103.64C220.553 103.64 222.103 104.07 223.463 104.93C224.823 105.79 225.883 107.04 226.643 108.68C227.423 110.3 227.813 112.24 227.813 114.5C227.813 116.76 227.423 118.71 226.643 120.35C225.883 121.97 224.823 123.21 223.463 124.07C222.103 124.93 220.553 125.36 218.813 125.36ZM218.813 121.25C220.093 121.25 221.093 120.7 221.813 119.6C222.553 118.5 222.923 116.8 222.923 114.5C222.923 112.2 222.553 110.5 221.813 109.4C221.093 108.3 220.093 107.75 218.813 107.75C217.553 107.75 216.553 108.3 215.813 109.4C215.093 110.5 214.733 112.2 214.733 114.5C214.733 116.8 215.093 118.5 215.813 119.6C216.553 120.7 217.553 121.25 218.813 121.25ZM239.174 125.36C237.434 125.36 235.884 124.93 234.524 124.07C233.164 123.21 232.094 121.97 231.314 120.35C230.554 118.71 230.174 116.76 230.174 114.5C230.174 112.24 230.554 110.3 231.314 108.68C232.094 107.04 233.164 105.79 234.524 104.93C235.884 104.07 237.434 103.64 239.174 103.64C240.914 103.64 242.464 104.07 243.824 104.93C245.184 105.79 246.244 107.04 247.004 108.68C247.784 110.3 248.174 112.24 248.174 114.5C248.174 116.76 247.784 118.71 247.004 120.35C246.244 121.97 245.184 123.21 243.824 124.07C242.464 124.93 240.914 125.36 239.174 125.36ZM239.174 121.25C240.454 121.25 241.454 120.7 242.174 119.6C242.914 118.5 243.284 116.8 243.284 114.5C243.284 112.2 242.914 110.5 242.174 109.4C241.454 108.3 240.454 107.75 239.174 107.75C237.914 107.75 236.914 108.3 236.174 109.4C235.454 110.5 235.094 112.2 235.094 114.5C235.094 116.8 235.454 118.5 236.174 119.6C236.914 120.7 237.914 121.25 239.174 121.25Z" fill="#040DBF"/>
<path d="M298.539 90.3672C298.539 89.5 297.844 88.8047 296.961 88.8047C296.094 88.8047 295.398 89.5 295.398 90.3672C295.398 91.2344 296.094 91.9297 296.961 91.9297C297.844 91.9297 298.539 91.2344 298.539 90.3672ZM304.32 90.3672C304.32 89.5 303.633 88.8047 302.766 88.8047C301.898 88.8047 301.211 89.5 301.211 90.3672C301.211 91.2344 301.898 91.9297 302.766 91.9297C303.633 91.9297 304.32 91.2344 304.32 90.3672ZM310.133 90.3672C310.133 89.5 309.43 88.8047 308.57 88.8047C307.687 88.8047 306.992 89.5 306.992 90.3672C306.992 91.2344 307.687 91.9297 308.57 91.9297C309.43 91.9297 310.133 91.2344 310.133 90.3672Z" fill="#3A3A3A"/>
<path d="M47 155.5C47 153.015 49.0147 151 51.5 151C53.9853 151 56 153.015 56 155.5V273H47V155.5Z" fill="#040DBF"/>
<path d="M70.0996 295.516C70.1051 298.002 68.0949 300.021 65.6096 300.026C63.1244 300.032 61.1051 298.022 61.0996 295.536L61.0494 273.036L70.0494 273.016L70.0996 295.516Z" fill="#808080"/>
<path d="M90 178.5C90 176.015 92.0147 174 94.5 174C96.9853 174 99 176.015 99 178.5V273H90V178.5Z" fill="#040DBF"/>
<path d="M113.092 292.169C113.098 294.654 111.087 296.674 108.602 296.679C106.117 296.685 104.098 294.675 104.092 292.189L104.049 273.036L113.049 273.016L113.092 292.169Z" fill="#808080"/>
<path d="M133 188.5C133 186.015 135.015 184 137.5 184C139.985 184 142 186.015 142 188.5V273H133V188.5Z" fill="#040DBF"/>
<path d="M156.073 283.852C156.079 286.337 154.069 288.356 151.584 288.362C149.098 288.367 147.079 286.357 147.073 283.872L147.049 273.036L156.049 273.016L156.073 283.852Z" fill="#808080"/>
<path d="M176 216.5C176 214.015 178.015 212 180.5 212C182.985 212 185 214.015 185 216.5V273H176V216.5Z" fill="#040DBF"/>
<path d="M199.055 275.537C199.06 278.023 197.05 280.042 194.565 280.047C192.08 280.053 190.06 278.043 190.055 275.558L190.049 273.036L199.049 273.016L199.055 275.537Z" fill="#808080"/>
<path d="M218 273H227V312.5C227 314.985 224.985 317 222.5 317C220.015 317 218 314.985 218 312.5V273Z" fill="#040DBF"/>
<path d="M242.016 272.599L233.016 272.619L232.964 249.52C232.959 247.035 234.969 245.016 237.454 245.01C239.939 245.005 241.959 247.015 241.964 249.5L242.016 272.599Z" fill="#808080"/>
<path d="M262 269H271V279.5C271 281.985 268.985 284 266.5 284C264.015 284 262 281.985 262 279.5V269Z" fill="#040DBF"/>
<path d="M286.016 268.599L277.016 268.619L276.871 203.55C276.865 201.065 278.875 199.046 281.36 199.04C283.846 199.035 285.865 201.045 285.871 203.53L286.016 268.599Z" fill="#808080"/>
<path d="M306 269H315V275.5C315 277.985 312.985 280 310.5 280C308.015 280 306 277.985 306 275.5V269Z" fill="#040DBF"/>
<path d="M330.016 268.569L321.016 268.589L320.784 164.766C320.779 162.28 322.789 160.261 325.274 160.256C327.759 160.25 329.779 162.26 329.784 164.745L330.016 268.569Z" fill="#808080"/>
<defs>
<filter id="filter0_d_4_381" x="-18" y="0" width="415" height="415" filterUnits="userSpaceOnUse" color-interpolation-filters="sRGB">
<feFlood flood-opacity="0" result="BackgroundImageFix"/>
<feColorMatrix in="SourceAlpha" type="matrix" values="0 0 0 0 0 0 0 0 0 0 0 0 0 0 0 0 0 0 127 0" result="hardAlpha"/>
<feOffset dy="9"/>
<feGaussianBlur stdDeviation="25"/>
<feComposite in2="hardAlpha" operator="out"/>
<feColorMatrix type="matrix" values="0 0 0 0 0 0 0 0 0 0 0 0 0 0 0 0 0 0 0.25 0"/>
<feBlend mode="normal" in2="BackgroundImageFix" result="effect1_dropShadow_4_381"/>
<feBlend mode="normal" in="SourceGraphic" in2="effect1_dropShadow_4_381" result="shape"/>
</filter>
</defs>
</svg>
